# xmcd
#
# Track frame offsets:
# 183
# 20088
# 44938
#
# Disc length: 896 seconds
#
#
# Revision: 0
# Processed by: cddbd v1.5.2PL0 Copyright (c) Steve Scherf et al.
# Submitted via: FreeRIP 2.951 
#
DISCID=28037e03
DTITLE=Whitney Houston - Run to You [CD Single)
DYEAR=1992
DGENRE=Pop
TTITLE0=Run to You
TTITLE1=I Belong to You
TTITLE2=Greatest Love of All
EXTD=
EXTT0=
EXTT1=
EXTT2=
PLAYORDER=
